# xmcd CD database file
#
# Track frame offsets:
#	150
#	23242
#	46757
#	73196
#	89375
#	110539
#	137201
#	160353
#	182941
#	210107
#	230504
#	252866
#	276023
#	295977
#	322056
#
# Disc length: 4676 seconds
#
# Revision: 2
# Processed by: cddbd v1.5.2PL0 Copyright (c) Steve Scherf et al.
# Submitted via: CDex 1.75
#
DISCID=dd12420f
DTITLE=Bill Evans Trio - Complete 1956-1962 Studio Albums
DYEAR=1961
DGENRE=Jazz
TTITLE0=Beautiful Love
TTITLE1=Elsa
TTITLE2=Nardis
TTITLE3=How Deep is the Ocean?>
TTITLE4=I Wish I Knew
TTITLE5=Sweet and Lovely
TTITLE6=The Boy Next Door
TTITLE7=How My Heart Sings
TTITLE8=Summertime
TTITLE9=If You Could See Me Now
TTITLE10=Waking Up
TTITLE11=Very Early
TTITLE12=Show-Type Tune
TTITLE13=Re: Person I Knew
TTITLE14=34 Skidoo
EXTD=YEAR: 1961
EXTT0=
EXTT1=
EXTT2=
EXTT3=
EXTT4=
EXTT5=
EXTT6=
EXTT7=
EXTT8=
EXTT9=
EXTT10=
EXTT11=
EXTT12=
EXTT13=
EXTT14=
PLAYORDER=
